HIERARCHY
ROOT Hips
{
  OFFSET 15.346 25.180 -267.751
  CHANNELS 6 Xposition Yposition Zposition Zrotation Xrotation Yrotation
  JOINT LeftUpLeg
  {
    OFFSET 7.948 -7.662 1.827
    CHANNELS 6 Xposition Yposition Zposition Zrotation Xrotation Yrotation
    JOINT LeftLeg
    {
      OFFSET 0.000 -47.708 0.000
      CHANNELS 6 Xposition Yposition Zposition Zrotation Xrotation Yrotation
      JOINT LeftFoot
      {
        OFFSET -0.000 -40.512 -0.000
        CHANNELS 6 Xposition Yposition Zposition Zrotation Xrotation Yrotation
        End Site
        {
          OFFSET 0.000 -8.629 4.982
        }
      }
    }
  }
  JOINT RightUpLeg
  {
    OFFSET -7.771 -7.382 1.878
    CHANNELS 6 Xposition Yposition Zposition Zrotation Xrotation Yrotation
    JOINT RightLeg
    {
      OFFSET -0.000 -46.007 0.000
      CHANNELS 6 Xposition Yposition Zposition Zrotation Xrotation Yrotation
      JOINT RightFoot
      {
        OFFSET 0.000 -43.764 -0.000
        CHANNELS 6 Xposition Yposition Zposition Zrotation Xrotation Yrotation
        End Site
        {
          OFFSET 0.000 -8.059 4.653
        }
      }
    }
  }
  JOINT Spine
  {
    OFFSET 0.000 5.861 -5.861
    CHANNELS 6 Xposition Yposition Zposition Zrotation Xrotation Yrotation
    JOINT LeftShoulder
    {
      OFFSET -0.000 38.433 0.000
      CHANNELS 6 Xposition Yposition Zposition Zrotation Xrotation Yrotation
      JOINT LeftArm
      {
        OFFSET 22.645 0.000 -0.000
        CHANNELS 6 Xposition Yposition Zposition Zrotation Xrotation Yrotation
        JOINT LeftForeArm
        {
          OFFSET 25.107 0.000 0.000
          CHANNELS 6 Xposition Yposition Zposition Zrotation Xrotation Yrotation
          JOINT LeftHand
          {
            OFFSET 27.170 0.000 -0.000
            CHANNELS 6 Xposition Yposition Zposition Zrotation Xrotation Yrotation
            JOINT LeftHandThumb1
            {
            OFFSET 4.970 -0.620 3.390
            CHANNELS 6 Xposition Yposition Zposition Zrotation Xrotation Yrotation
              JOINT LeftHandThumb2
              {
              OFFSET 2.150 -0.000 0.000
              CHANNELS 6 Xposition Yposition Zposition Zrotation Xrotation Yrotation
                JOINT LeftHandThumb3
                {
                OFFSET 2.200 -0.000 0.000
                CHANNELS 6 Xposition Yposition Zposition Zrotation Xrotation Yrotation
                  JOINT LeftHandThumb4
                  {
                  OFFSET 1.700 -0.000 0.000
                  CHANNELS 6 Xposition Yposition Zposition Zrotation Xrotation Yrotation
                  }
                }
              }
            }
            JOINT LeftHandIndex1
            {
            OFFSET 8.730 0.680 2.070
            CHANNELS 6 Xposition Yposition Zposition Zrotation Xrotation Yrotation
              JOINT LeftHandIndex2
              {
              OFFSET 2.670 -0.000 0.000
              CHANNELS 6 Xposition Yposition Zposition Zrotation Xrotation Yrotation
                JOINT LeftHandIndex3
                {
                OFFSET 2.130 -0.000 0.000
                CHANNELS 6 Xposition Yposition Zposition Zrotation Xrotation Yrotation
                  JOINT LeftHandIndex4
                  {
                  OFFSET 1.800 -0.000 0.000
                  CHANNELS 6 Xposition Yposition Zposition Zrotation Xrotation Yrotation
                  }
                }
              }
            }
            JOINT LeftHandMiddle1
            {
            OFFSET 9.220 0.670 0.550
            CHANNELS 6 Xposition Yposition Zposition Zrotation Xrotation Yrotation
              JOINT LeftHandMiddle2
              {
              OFFSET 2.660 -0.000 0.000
              CHANNELS 6 Xposition Yposition Zposition Zrotation Xrotation Yrotation
                JOINT LeftHandMiddle3
                {
                OFFSET 2.280 -0.000 0.000
                CHANNELS 6 Xposition Yposition Zposition Zrotation Xrotation Yrotation
                  JOINT LeftHandMiddle4
                  {
                  OFFSET 1.500 -0.000 0.000
                  CHANNELS 6 Xposition Yposition Zposition Zrotation Xrotation Yrotation
                  }
                }
              }
            }
            JOINT LeftHandRing1
            {
            OFFSET 9.250 0.670 -1.130
            CHANNELS 6 Xposition Yposition Zposition Zrotation Xrotation Yrotation
              JOINT LeftHandRing2
              {
              OFFSET 2.470 -0.000 0.000
              CHANNELS 6 Xposition Yposition Zposition Zrotation Xrotation Yrotation
                JOINT LeftHandRing3
                {
                OFFSET 2.210 -0.000 0.000
                CHANNELS 6 Xposition Yposition Zposition Zrotation Xrotation Yrotation
                  JOINT LeftHandRing4
                  {
                  OFFSET 1.800 -0.000 0.000
                  CHANNELS 6 Xposition Yposition Zposition Zrotation Xrotation Yrotation
                  }
                }
              }
            }
            JOINT LeftHandPinky1
            {
            OFFSET 9.350 0.660 -2.720
            CHANNELS 6 Xposition Yposition Zposition Zrotation Xrotation Yrotation
              JOINT LeftHandPinky2
              {
              OFFSET 1.630 -0.000 0.000
              CHANNELS 6 Xposition Yposition Zposition Zrotation Xrotation Yrotation
                JOINT LeftHandPinky3
                {
                OFFSET 1.710 -0.000 0.000
                CHANNELS 6 Xposition Yposition Zposition Zrotation Xrotation Yrotation
                  JOINT LeftHandPinky4
                  {
                  OFFSET 1.800 -0.000 0.000
                  CHANNELS 6 Xposition Yposition Zposition Zrotation Xrotation Yrotation
                  }
                }
              }
            }
          }
        }
      }
    }
    JOINT RightShoulder
    {
      OFFSET -0.000 38.433 0.000
      CHANNELS 6 Xposition Yposition Zposition Zrotation Xrotation Yrotation
      JOINT RightArm
      {
        OFFSET -22.431 0.000 -0.000
        CHANNELS 6 Xposition Yposition Zposition Zrotation Xrotation Yrotation
        JOINT RightForeArm
        {
          OFFSET -26.397 0.000 0.000
          CHANNELS 6 Xposition Yposition Zposition Zrotation Xrotation Yrotation
          JOINT RightHand
          {
            OFFSET -24.803 0.000 -0.000
            CHANNELS 6 Xposition Yposition Zposition Zrotation Xrotation Yrotation
            JOINT RightHandThumb1
            {
            OFFSET -4.970 -0.620 3.390
            CHANNELS 6 Xposition Yposition Zposition Zrotation Xrotation Yrotation
              JOINT RightHandThumb2
              {
              OFFSET -2.150 0.000 0.000
              CHANNELS 6 Xposition Yposition Zposition Zrotation Xrotation Yrotation
                JOINT RightHandThumb3
                {
                OFFSET -2.200 0.000 0.000
                CHANNELS 6 Xposition Yposition Zposition Zrotation Xrotation Yrotation
                  JOINT RightHandThumb4
                  {
                  OFFSET -1.700 0.000 0.000
                  CHANNELS 6 Xposition Yposition Zposition Zrotation Xrotation Yrotation
                  }
                }
              }
            }
            JOINT RightHandIndex1
            {
            OFFSET -8.730 0.680 2.070
            CHANNELS 6 Xposition Yposition Zposition Zrotation Xrotation Yrotation
              JOINT RightHandIndex2
              {
              OFFSET -2.670 0.000 0.000
              CHANNELS 6 Xposition Yposition Zposition Zrotation Xrotation Yrotation
                JOINT RightHandIndex3
                {
                OFFSET -2.130 0.000 0.000
                CHANNELS 6 Xposition Yposition Zposition Zrotation Xrotation Yrotation
                  JOINT RightHandIndex4
                  {
                  OFFSET -1.800 0.000 0.000
                  CHANNELS 6 Xposition Yposition Zposition Zrotation Xrotation Yrotation
                  }
                }
              }
            }
            JOINT RightHandMiddle1
            {
            OFFSET -9.220 0.670 0.550
            CHANNELS 6 Xposition Yposition Zposition Zrotation Xrotation Yrotation
              JOINT RightHandMiddle2
              {
              OFFSET -2.660 0.000 0.000
              CHANNELS 6 Xposition Yposition Zposition Zrotation Xrotation Yrotation
                JOINT RightHandMiddle3
                {
                OFFSET -2.280 0.000 0.000
                CHANNELS 6 Xposition Yposition Zposition Zrotation Xrotation Yrotation
                  JOINT RightHandMiddle4
                  {
                  OFFSET -1.500 0.000 0.000
                  CHANNELS 6 Xposition Yposition Zposition Zrotation Xrotation Yrotation
                  }
                }
              }
            }
            JOINT RightHandRing1
            {
            OFFSET -9.250 0.670 -1.130
            CHANNELS 6 Xposition Yposition Zposition Zrotation Xrotation Yrotation
              JOINT RightHandRing2
              {
              OFFSET -2.470 0.000 0.000
              CHANNELS 6 Xposition Yposition Zposition Zrotation Xrotation Yrotation
                JOINT RightHandRing3
                {
                OFFSET -2.210 0.000 0.000
                CHANNELS 6 Xposition Yposition Zposition Zrotation Xrotation Yrotation
                  JOINT RightHandRing4
                  {
                  OFFSET -1.800 0.000 0.000
                  CHANNELS 6 Xposition Yposition Zposition Zrotation Xrotation Yrotation
                  }
                }
              }
            }
            JOINT RightHandPinky1
            {
            OFFSET -9.350 0.660 -2.720
            CHANNELS 6 Xposition Yposition Zposition Zrotation Xrotation Yrotation
              JOINT RightHandPinky2
              {
              OFFSET -1.630 0.000 0.000
              CHANNELS 6 Xposition Yposition Zposition Zrotation Xrotation Yrotation
                JOINT RightHandPinky3
                {
                OFFSET -1.710 0.000 0.000
                CHANNELS 6 Xposition Yposition Zposition Zrotation Xrotation Yrotation
                  JOINT RightHandPinky4
                  {
                  OFFSET -1.800 0.000 0.000
                  CHANNELS 6 Xposition Yposition Zposition Zrotation Xrotation Yrotation
                  }
                }
              }
            }
          }
        }
      }
    }
    JOINT Neck
    {
      OFFSET -0.000 38.433 0.000
      CHANNELS 6 Xposition Yposition Zposition Zrotation Xrotation Yrotation
      JOINT Head
      {
        OFFSET -0.000 16.511 -0.000
        CHANNELS 6 Xposition Yposition Zposition Zrotation Xrotation Yrotation
        End Site
        {
          OFFSET -0.000 0.066 -0.000
        }
      }
    }
  }
}
MOTION
Frames:	4
Frame Time:	0.0333333
19.2137 24.2553 -289.464 -0.188189 5.05307 -26.0339 8.15706 -7.11298 1.85926 5.85307 -4.91734 -0.288577 -1.19209e-05 -50.0678 -2.38419e-05 -4.12921 -7.43756 -0.535423 2.38419e-05 -38.7834 4.76837e-05 5.6611 -6.84229 4.06385 -7.51543 -8.1288 1.72935 3.6272 6.62599 -0.461365 -3.57628e-05 -46.3169 4.76837e-05 5.5569 -2.72519 0.265034 -1.19209e-05 -34.4802 0 -12.7427 -23.0754 -11.913 0 5.96995 -5.96995 1.9393 -4.54916 -1.00465 -1.19209e-05 38.4328 2.38419e-05 -41.0571 1.8783e-05 0.222059 21.754 2.98023e-06 -2.38419e-05 -32.4981 27.2374 0.269662 27.1284 2.38419e-05 0 5.30594e-06 1.19528e-05 -23.9367 24.9152 2.38419e-05 2.38419e-05 -7.08604 -0.0534254 -0.395031 0.0062 0.0497 0.0339 0 0 0 0 0.0215 0 0 0 0 0 0.022 0 0 0 0 0 0.017 0 0 0 0 -0.0068 0.0873 0.0207 0 0 0 0 0.0267 0 0 0 0 0 0.0213 0 0 0 0 0 0.018 0 0 0 0 -0.0067 0.0922 0.0055 0 0 0 0 0.0266 0 0 0 0 0 0.0228 0 0 0 0 0 0.015 0 0 0 0 -0.0067 0.0925 -0.0113 0 0 0 0 0.0247 0 0 0 0 0 0.0221 0 0 0 0 0 0.018 0 0 0 0 -0.0066 0.0935 -0.0272 0 0 0 0 0.0163 0 0 0 0 0 0.0171 0 0 0 0 0 0.018 0 0 0 0 -1.19209e-05 38.4328 2.38419e-05 34.2519 -8.53774e-06 -0.220942 -21.8655 -2.38419e-05 -2.38419e-05 44.5632 22.5129 -1.17618 -30.2383 1.19209e-05 0 -2.00702e-06 3.84198e-06 24.7597 -24.8347 2.98023e-06 -7.15256e-05 -0.730774 -0.0153362 4.6536 -0.0062 0.0497 0.0339 0 0 0 0 0.0215 0 0 0 0 0 0.022 0 0 0 0 0 0.017 0 0 0 0 0.0068 0.0873 0.0207 0 0 0 0 0.0267 0 0 0 0 0 0.0213 0 0 0 0 0 0.018 0 0 0 0 0.0067 0.0922 0.0055 0 0 0 0 0.0266 0 0 0 0 0 0.0228 0 0 0 0 0 0.015 0 0 0 0 0.0067 0.0925 -0.0113 0 0 0 0 0.0247 0 0 0 0 0 0.0221 0 0 0 0 0 0.018 0 0 0 0 0.0066 0.0935 -0.0272 0 0 0 0 0.0163 0 0 0 0 0 0.0171 0 0 0 0 0 0.018 0 0 0 0 -1.19209e-05 38.4328 2.38419e-05 -1.92183 24.0559 0.783635 1.19209e-05 16.3451 -2.38419e-05 5.12264e-06 -8.53774e-06 5.12264e-06 
19.2962 24.2102 -289.947 -0.155186 4.78903 -25.7163 8.15499 -7.11618 1.84436 5.71792 -5.00957 -0.346045 0 -49.9848 0 -4.08162 -7.48892 -0.532854 1.19209e-05 -38.8501 2.38419e-05 5.27641 -6.58691 3.76499 -7.51793 -8.11831 1.69969 3.63929 6.69428 -0.521764 0 -46.1607 2.38419e-05 5.40416 -2.93452 0.277476 -1.19209e-05 -34.5042 4.76837e-05 -12.7147 -23.18 -11.9067 -1.19209e-05 5.98271 -5.98273 1.94028 -4.34799 -1.01023 -3.57628e-05 38.4328 2.38419e-05 -40.9299 2.39057e-05 -0.111313 21.7921 -8.9407e-06 0 -32.8914 26.8425 0.786964 27.0155 5.96046e-05 2.38419e-05 2.97627e-06 -1.70755e-06 -24.2705 24.9081 -3.57628e-05 0 -6.71886 -0.0826558 0.749178 0.0062 0.0497 0.0339 0 0 0 0 0.0215 0 0 0 0 0 0.022 0 0 0 0 0 0.017 0 0 0 0 -0.0068 0.0873 0.0207 0 0 0 0 0.0267 0 0 0 0 0 0.0213 0 0 0 0 0 0.018 0 0 0 0 -0.0067 0.0922 0.0055 0 0 0 0 0.0266 0 0 0 0 0 0.0228 0 0 0 0 0 0.015 0 0 0 0 -0.0067 0.0925 -0.0113 0 0 0 0 0.0247 0 0 0 0 0 0.0221 0 0 0 0 0 0.018 0 0 0 0 -0.0066 0.0935 -0.0272 0 0 0 0 0.0163 0 0 0 0 0 0.0171 0 0 0 0 0 0.018 0 0 0 0 -3.57628e-05 38.4328 2.38419e-05 34.3628 -7.68396e-06 0.111283 -21.7955 0 -2.38419e-05 44.6688 25.8701 -1.60235 -30.2737 6.70552e-06 -2.38419e-05 5.65402e-07 2.80144e-06 24.2848 -25.3345 7.45058e-07 4.76837e-05 -1.60106 -0.0301287 4.76841 -0.0062 0.0497 0.0339 0 0 0 0 0.0215 0 0 0 0 0 0.022 0 0 0 0 0 0.017 0 0 0 0 0.0068 0.0873 0.0207 0 0 0 0 0.0267 0 0 0 0 0 0.0213 0 0 0 0 0 0.018 0 0 0 0 0.0067 0.0922 0.0055 0 0 0 0 0.0266 0 0 0 0 0 0.0228 0 0 0 0 0 0.015 0 0 0 0 0.0067 0.0925 -0.0113 0 0 0 0 0.0247 0 0 0 0 0 0.0221 0 0 0 0 0 0.018 0 0 0 0 0.0066 0.0935 -0.0272 0 0 0 0 0.0163 0 0 0 0 0 0.0171 0 0 0 0 0 0.018 0 0 0 0 -3.57628e-05 38.4328 2.38419e-05 -1.97755 24.2795 0.813414 0 16.3667 4.76837e-05 9.39151e-06 -1.19528e-05 0 
19.3775 24.1592 -290.372 -0.102284 4.58823 -25.4416 8.14365 -7.11366 1.82588 5.49646 -4.89516 -0.366147 -1.19209e-05 -50.2253 -2.38419e-05 -3.86191 -8.13898 -0.54756 1.19209e-05 -38.6336 2.38419e-05 4.9194 -6.2649 3.48242 -7.51774 -8.10476 1.68128 3.64897 7.12456 -0.527264 -1.19209e-05 -47.484 2.38419e-05 5.55041 -4.09691 0.397782 -1.19209e-05 -33.3664 -4.76837e-05 -12.7057 -23.306 -11.9203 0 5.99589 -5.99585 1.91399 -4.18946 -0.972652 2.38419e-05 38.4328 -7.15256e-05 -40.843 1.36604e-05 -0.334608 21.7695 -2.98023e-06 2.38419e-05 -33.0502 27.083 1.12089 26.9234 2.38419e-05 2.38419e-05 -1.7102e-06 -1.19528e-05 -24.572 24.8974 5.96046e-05 1.19209e-05 -6.32122 -0.0940215 1.60578 0.0062 0.0497 0.0339 0 0 0 0 0.0215 0 0 0 0 0 0.022 0 0 0 0 0 0.017 0 0 0 0 -0.0068 0.0873 0.0207 0 0 0 0 0.0267 0 0 0 0 0 0.0213 0 0 0 0 0 0.018 0 0 0 0 -0.0067 0.0922 0.0055 0 0 0 0 0.0266 0 0 0 0 0 0.0228 0 0 0 0 0 0.015 0 0 0 0 -0.0067 0.0925 -0.0113 0 0 0 0 0.0247 0 0 0 0 0 0.0221 0 0 0 0 0 0.018 0 0 0 0 -0.0066 0.0935 -0.0272 0 0 0 0 0.0163 0 0 0 0 0 0.0171 0 0 0 0 0 0.018 0 0 0 0 2.38419e-05 38.4328 -7.15256e-05 34.4604 0 0.334668 -21.7658 1.19209e-05 2.38419e-05 44.799 27.625 -2.05877 -30.2903 1.49012e-06 0.000119209 5.38087e-06 1.17394e-06 24.1888 -25.4665 0 -7.15256e-05 -2.55608 -0.0432643 4.83223 -0.0062 0.0497 0.0339 0 0 0 0 0.0215 0 0 0 0 0 0.022 0 0 0 0 0 0.017 0 0 0 0 0.0068 0.0873 0.0207 0 0 0 0 0.0267 0 0 0 0 0 0.0213 0 0 0 0 0 0.018 0 0 0 0 0.0067 0.0922 0.0055 0 0 0 0 0.0266 0 0 0 0 0 0.0228 0 0 0 0 0 0.015 0 0 0 0 0.0067 0.0925 -0.0113 0 0 0 0 0.0247 0 0 0 0 0 0.0221 0 0 0 0 0 0.018 0 0 0 0 0.0066 0.0935 -0.0272 0 0 0 0 0.0163 0 0 0 0 0 0.0171 0 0 0 0 0 0.018 0 0 0 0 2.38419e-05 38.4328 -7.15256e-05 -1.73744 24 0.70687 -1.19209e-05 16.4803 0.000119209 1.10991e-05 -1.53679e-05 0 
19.4384 24.117 -290.745 -0.0346155 4.43405 -25.3606 8.14702 -7.10962 1.8121 5.40705 -4.94021 -0.394337 2.38419e-05 -50.2442 -2.38419e-05 -3.85369 -8.35493 -0.560792 -2.38419e-05 -38.6116 -4.76837e-05 4.64311 -5.9645 3.25805 -7.53298 -8.10269 1.6614 3.66912 6.96517 -0.551145 3.57628e-05 -46.8797 -2.38419e-05 5.33918 -3.89329 0.363569 -2.38419e-05 -33.7463 0 -12.7008 -23.4972 -11.9463 1.19209e-05 6.00794 -6.00784 1.88205 -4.04948 -0.934542 -4.76837e-05 38.4328 -2.38419e-05 -40.7777 1.70755e-05 -0.427601 21.7417 2.23517e-05 4.76837e-05 -33.1219 27.1613 1.36538 26.8289 9.53674e-05 -2.38419e-05 8.97795e-07 -1.02453e-05 -24.8658 24.8892 -2.38419e-05 -1.19209e-05 -5.96422 -0.0906709 2.11404 0.0062 0.0497 0.0339 0 0 0 0 0.0215 0 0 0 0 0 0.022 0 0 0 0 0 0.017 0 0 0 0 -0.0068 0.0873 0.0207 0 0 0 0 0.0267 0 0 0 0 0 0.0213 0 0 0 0 0 0.018 0 0 0 0 -0.0067 0.0922 0.0055 0 0 0 0 0.0266 0 0 0 0 0 0.0228 0 0 0 0 0 0.015 0 0 0 0 -0.0067 0.0925 -0.0113 0 0 0 0 0.0247 0 0 0 0 0 0.0221 0 0 0 0 0 0.018 0 0 0 0 -0.0066 0.0935 -0.0272 0 0 0 0 0.0163 0 0 0 0 0 0.0171 0 0 0 0 0 0.018 0 0 0 0 -4.76837e-05 38.4328 -2.38419e-05 34.4796 -8.53774e-06 0.426749 -21.7846 0 2.38419e-05 44.9471 28.9547 -2.21166 -30.2732 -5.96046e-06 0 7.97409e-06 -2.13443e-06 24.1458 -25.5879 1.49012e-06 2.38419e-05 -3.42318 -0.0506439 4.72373 -0.0062 0.0497 0.0339 0 0 0 0 0.0215 0 0 0 0 0 0.022 0 0 0 0 0 0.017 0 0 0 0 0.0068 0.0873 0.0207 0 0 0 0 0.0267 0 0 0 0 0 0.0213 0 0 0 0 0 0.018 0 0 0 0 0.0067 0.0922 0.0055 0 0 0 0 0.0266 0 0 0 0 0 0.0228 0 0 0 0 0 0.015 0 0 0 0 0.0067 0.0925 -0.0113 0 0 0 0 0.0247 0 0 0 0 0 0.0221 0 0 0 0 0 0.018 0 0 0 0 0.0066 0.0935 -0.0272 0 0 0 0 0.0163 0 0 0 0 0 0.0171 0 0 0 0 0 0.018 0 0 0 0 -4.76837e-05 38.4328 -2.38419e-05 -1.58991 23.7034 0.639285 1.19209e-05 16.5874 2.38419e-05 1.02453e-05 -1.02453e-05 1.70755e-06 
